<svg width="11" height="9" viewBox="0 0 11 9" fill="none" xmlns="http://www.w3.org/2000/svg">
    <path d="M10.9748 4.36257C10.9711 4.35302 10.9671 4.34361 10.9626 4.33436C10.4748 3.32126 9.71567 2.4643 8.76732 1.85609C7.7929 1.23116 6.66325 0.900879 5.50056 0.900879C4.33786 0.900879 3.20816 1.23121 2.23374 1.85619C1.28884 2.46216 0.531811 3.31516 0.0438112 4.32338C-0.0108797 4.42814 -0.014946 4.5548 0.0382201 4.66525C0.525966 5.67851 1.28513 6.53562 2.23358 7.14393C3.20806 7.76896 4.33776 8.0993 5.50056 8.0993C6.6633 8.0993 7.793 7.76897 8.76742 7.14398C9.71588 6.53572 10.475 5.67866 10.9628 4.66551C11.0084 4.57061 11.0127 4.46077 10.9748 4.36257ZM5.50056 7.33682C3.53946 7.33682 1.71793 6.22933 0.808519 4.50001C1.71793 2.77069 3.53946 1.66325 5.50056 1.66325C7.4616 1.66325 9.28318 2.77079 10.1926 4.50006C9.28313 6.22923 7.46155 7.33682 5.50056 7.33682Z"
          fill="#B1B1B1"/>
</svg>
