<svg width="12" height="8" viewBox="0 0 12 8" fill="none" xmlns="http://www.w3.org/2000/svg">
    <path d="M11.6125 3.57839C11.6088 3.56884 11.6048 3.55943 11.6003 3.55018C11.1125 2.53708 10.3534 1.68012 9.40502 1.07191C8.43059 0.44698 7.30094 0.116699 6.13825 0.116699C4.97556 0.116699 3.84586 0.447031 2.87143 1.07201C1.92654 1.67798 1.16951 2.53098 0.681507 3.5392C0.626816 3.64396 0.622749 3.77062 0.675915 3.88107C1.16366 4.89433 1.92283 5.75144 2.87128 6.35975C3.84575 6.98479 4.97546 7.31512 6.13825 7.31512C7.30099 7.31512 8.4307 6.98479 9.40512 6.3598C10.3536 5.75154 11.1127 4.89448 11.6005 3.88133C11.6461 3.78643 11.6504 3.67659 11.6125 3.57839ZM6.13825 6.55265C4.17715 6.55265 2.35563 5.44515 1.44621 3.71583C2.35563 1.98651 4.17715 0.879069 6.13825 0.879069C8.0993 0.879069 9.92087 1.98661 10.8303 3.71588C9.92082 5.44505 8.09925 6.55265 6.13825 6.55265Z"
          fill="#B1B1B1"/>
</svg>
