<svg width="59" height="50" viewBox="0 0 59 50" fill="none" xmlns="http://www.w3.org/2000/svg">
    <rect width="21.8341" height="26.7965" rx="10.9171"
          transform="matrix(0.708404 0.705807 -0.705809 0.708402 19.312 15.1831)" fill="#365193"/>
    <g clip-path="url(#clip0)">
        <path d="M38.0568 27.5669C37.5218 27.5669 37.0876 28.0011 37.0876 28.5361C37.0876 29.0711 37.5218 29.5053 38.0568 29.5053C38.5918 29.5053 39.0261 29.0711 39.0261 28.5361C39.0261 28.0011 38.5918 27.5669 38.0568 27.5669Z"
              fill="black"/>
        <path d="M46.7041 32.7848C45.7956 31.8768 43.5923 29.4191 41.8541 25.4333C40.5616 22.3321 37.556 20.3286 34.1947 20.3286C30.8341 20.3286 27.829 22.3323 26.5362 25.4343C24.3554 30.4359 21.3763 33.0828 21.3477 33.1078C21.3442 33.1108 21.3408 33.1139 21.3374 33.1169C19.5803 34.6903 18.5725 36.944 18.5725 39.3004C18.5725 42.1809 19.9442 44.686 22.3238 46.2733C24.541 47.7525 27.2889 48.196 29.8626 47.4903C31.1525 47.1369 32.6453 46.9501 34.1802 46.9501C35.7409 46.9501 37.2558 47.1431 38.5612 47.5083C41.0594 48.2076 43.8013 47.8242 46.0649 46.3286C48.4718 44.7383 49.8673 42.2095 49.8673 39.3004C49.8673 36.7418 48.7153 34.3706 46.7041 32.7848ZM44.9961 44.7113C43.2493 45.8654 41.0943 46.2045 39.0834 45.6417C37.6102 45.2295 35.9146 45.0117 34.1799 45.0117C32.4745 45.0117 30.8044 45.2224 29.3499 45.6209C27.3179 46.1781 25.149 45.8281 23.3992 44.6608C21.5723 43.4421 20.5106 41.5367 20.5106 39.3003C20.5106 37.4962 21.2817 35.7703 22.6263 34.5645C22.8331 34.3831 25.9784 31.5672 28.3161 26.2012C28.3182 26.1962 28.3205 26.1911 28.3225 26.1861C29.3119 23.8053 31.6166 22.267 34.1943 22.267C36.773 22.2669 39.0782 23.8049 40.0673 26.1851C40.0693 26.1902 40.0715 26.1952 40.0737 26.2002C41.972 30.5568 44.4161 33.2463 45.3787 34.2006C45.4064 34.2279 45.4357 34.2537 45.4663 34.2776C47.0312 35.4934 47.9286 37.3242 47.9286 39.3003C47.9288 41.5553 46.8499 43.4865 44.9961 44.7113Z"
              fill="black"/>
        <path d="M40.6971 31.4253C40.405 30.9769 39.8046 30.8498 39.356 31.142C38.9073 31.4343 38.7806 32.0348 39.0727 32.4832C40.5475 34.7476 41.9459 36.2556 42.6484 36.9531C43.0281 37.3301 43.6418 37.3281 44.0191 36.9481C44.3962 36.5683 44.394 35.9546 44.0142 35.5774C43.3664 34.9342 42.074 33.5396 40.6971 31.4253Z"
              fill="black"/>
        <path d="M31.0384 15.6038C31.9698 13.976 32.358 11.814 32.1037 9.67276C31.6117 5.50393 28.7366 2.0116 25.5244 2.39735C24.0739 2.56899 22.7842 3.52114 21.8925 5.07835C20.9617 6.70487 20.5735 8.86687 20.8272 11.0097C21.6308 17.8178 27.9687 20.9661 31.0384 15.6038ZM23.5748 6.04126C24.1054 5.11441 24.933 4.30842 25.9998 4.30842C27.9072 4.30842 29.821 6.86896 30.1789 9.90062C30.3853 11.6387 30.0854 13.3665 29.3562 14.641C27.1225 18.5434 23.28 15.2533 22.7522 10.7821C22.5462 9.04268 22.8462 7.31469 23.5748 6.04126Z"
              fill="black"/>
        <path d="M21.7543 26.0279C22.0349 24.3005 21.694 22.3901 20.7944 20.6486C19.8944 18.9066 18.5334 17.5229 16.962 16.7522C15.2932 15.9336 13.5841 15.8914 12.1497 16.6331C10.7152 17.3742 9.76134 18.7925 9.46341 20.6269C9.18283 22.3544 9.52379 24.2647 10.4234 26.0064C11.3235 27.7479 12.6845 29.1313 14.2558 29.902C15.8153 30.6669 17.543 30.8099 19.0679 30.022C20.5025 29.2809 21.4566 27.8624 21.7543 26.0279ZM18.1783 28.2999C17.3031 28.7523 16.2133 28.7031 15.1095 28.1617C13.9087 27.5728 12.8561 26.4911 12.1456 25.1165C11.4354 23.7417 11.1623 22.2578 11.3767 20.9376C11.5738 19.7244 12.1644 18.8074 13.0397 18.3552C13.0398 18.3551 13.0399 18.3551 13.04 18.355C14.0078 17.8546 15.1288 18.012 16.1085 18.4925C17.3092 19.0815 18.3618 20.1632 19.0723 21.5383C19.7824 22.9131 20.0555 24.3973 19.8411 25.7173C19.6442 26.9306 19.0536 27.8476 18.1783 28.2999Z"
              fill="black"/>
        <path d="M41.4489 18.3317C44.387 18.3317 47.0691 15.1238 47.5548 11.0284C48.0709 6.66566 45.8727 2.38867 42.3812 2.38867C39.4426 2.38867 36.7608 5.59663 36.2763 9.6919C35.7596 14.0626 37.9642 18.3317 41.4489 18.3317ZM38.2013 9.91957C38.5601 6.8881 40.4743 4.32698 42.3814 4.32698C42.4711 4.32698 42.5485 4.33134 42.6178 4.34035C43.6512 4.4552 44.4512 5.3584 44.9224 6.2806C45.5634 7.53484 45.8212 9.18229 45.6299 10.8004C45.2575 13.941 43.1758 16.6347 41.2126 16.3799C41.209 16.3795 41.2054 16.379 41.2018 16.3785C40.3206 16.2748 39.4846 15.5683 38.9085 14.4401C38.2677 13.1858 38.01 11.5381 38.2013 9.91957Z"
              fill="black"/>
        <path d="M58.896 20.631C58.2831 16.8563 54.8709 15.0519 51.3974 16.7563C48.1478 18.3504 46.0244 22.4569 46.6051 26.0321C47.2253 29.8515 50.6715 31.5899 54.1036 29.9062C57.3542 28.3118 59.4765 24.2058 58.896 20.631ZM53.2499 28.1658C52.1462 28.7071 51.0564 28.7561 50.1811 28.3039V28.304C49.3059 27.8517 48.7152 26.9345 48.5183 25.7214C48.0752 22.9925 49.7625 19.7175 52.2511 18.4964C54.5316 17.3776 56.575 18.431 56.9827 20.9416C57.425 23.6654 55.743 26.9431 53.2499 28.1658Z"
              fill="black"/>
    </g>
    <defs>
        <clipPath id="clip0">
            <rect width="49.6231" height="49.6231" fill="white" transform="translate(9.36841 0.295898)"/>
        </clipPath>
    </defs>
</svg>
