<svg width="59" height="55" viewBox="0 0 59 55" fill="none" xmlns="http://www.w3.org/2000/svg">
    <path d="M14.9461 40.0323L58.93 40.0322L58.9975 47.9719L13.3442 47.8353L14.9461 40.0323Z" fill="#365193"/>
    <g clip-path="url(#clip0)">
        <path d="M55.0068 38.4371C55.0068 38.4089 55.0132 38.3816 55.0068 38.3534L50.1669 15.7524C49.7056 13.6638 47.8599 12.1727 45.7209 12.1606H19.4199C17.9835 12.1621 16.8195 13.3262 16.818 14.7625V15.0173C16.8195 16.4537 17.9835 17.6177 19.4199 17.6192H37.0528C37.4815 17.6211 37.8514 17.9201 37.9434 18.3388L38.9578 23.0777H36.8326C36.8326 21.5704 35.6107 20.3484 34.1034 20.3484H32.2838C30.7765 20.3484 29.5546 21.5704 29.5546 23.0777H25.7609C17.1391 23.0478 9.2511 27.925 5.42512 35.6515L4.39982 37.6939C2.14181 37.9862 0.449547 39.9058 0.442383 42.1826C0.442383 42.685 0.849726 43.0924 1.35214 43.0924H54.118C54.6204 43.0924 55.0277 42.685 55.0277 42.1826V38.5436C55.0277 38.5063 55.0105 38.4744 55.0068 38.4371ZM37.0528 15.7997H19.4199C18.988 15.7992 18.638 15.4492 18.6375 15.0173V14.7625C18.638 14.3306 18.988 13.9806 19.4199 13.9802H45.7209C47.0034 13.9889 48.1094 14.8832 48.3865 16.1354L52.9926 37.6338H43.9369L39.722 17.9585C39.4479 16.7024 38.3384 15.805 37.0528 15.7997ZM32.2838 22.168H34.1034C34.6058 22.168 35.0131 22.5753 35.0131 23.0777H31.3741C31.3741 22.5753 31.7814 22.168 32.2838 22.168ZM7.05176 36.4657C10.5716 29.3571 17.8286 24.8698 25.7609 24.8972H39.3454L42.0746 37.6338H6.46588L7.05176 36.4657ZM53.2082 41.2728H2.41746C2.80445 40.1832 3.83486 39.4547 4.99116 39.4533H53.2082V41.2728Z"
              fill="black"/>
        <path d="M25.7611 26.7166C19.7393 26.681 14.0617 29.5198 10.4772 34.3586C10.1757 34.7606 10.2571 35.3308 10.6591 35.6322C11.0611 35.9337 11.6313 35.8523 11.9328 35.4503C15.1756 31.072 20.3127 28.5034 25.7611 28.5362C26.2635 28.5362 26.6708 28.1288 26.6708 27.6264C26.6708 27.124 26.2635 26.7166 25.7611 26.7166Z"
              fill="black"/>
    </g>
    <defs>
        <clipPath id="clip0">
            <rect width="54.5854" height="54.5854" fill="white" transform="translate(0.442383 0.333496)"/>
        </clipPath>
    </defs>
</svg>
