<svg width="55" height="55" viewBox="0 0 55 55" fill="none" xmlns="http://www.w3.org/2000/svg">
    <g clip-path="url(#clip0)">
        <rect x="1.07227" y="25.168" width="21.8341" height="26.7965" rx="5.95477" fill="#365193"/>
        <path d="M46.3471 23.8701L44.4267 22.2243C43.4184 21.3598 42.8382 20.0978 42.8382 18.77V18.5515C43.3406 18.5515 43.748 18.1441 43.748 17.6417V14.0027C43.748 12.4955 42.5259 11.2734 41.0187 11.2734H37.3797C35.8725 11.2734 34.6504 12.4955 34.6504 14.0027V17.6417C34.6504 18.1441 35.0578 18.5515 35.5602 18.5515V18.77C35.5611 20.0991 34.9805 21.362 33.9708 22.2269L32.0522 23.8728C30.2367 25.4266 29.1915 27.6975 29.1919 30.0874V48.5734C29.1959 52.089 32.0447 54.9377 35.5602 54.9417H42.8382C46.3538 54.9377 49.2025 52.089 49.2065 48.5734V30.0874C49.2078 27.6966 48.163 25.4249 46.3471 23.8701ZM36.4699 14.0027C36.4699 13.5003 36.8773 13.0929 37.3797 13.0929H41.0187C41.5211 13.0929 41.9285 13.5003 41.9285 14.0027V16.732H36.4699V14.0027ZM47.387 48.5734C47.3839 51.0846 45.3494 53.1191 42.8382 53.1222H35.5602C33.0495 53.1191 31.0145 51.0846 31.0114 48.5734V30.0874C31.0105 28.2279 31.823 26.4608 33.2356 25.2521L35.1555 23.6053C36.5681 22.3962 37.3806 20.6291 37.3797 18.77V18.5515H41.0187V18.77C41.0187 20.6291 41.8307 22.3953 43.242 23.6053L45.1637 25.2521C46.5759 26.4612 47.3879 28.2279 47.387 30.0874V48.5734Z"
              fill="black"/>
        <path d="M15.5458 46.7534C12.0303 46.7494 9.18149 43.9006 9.17749 40.3851V33.1071C9.17749 29.5898 12.0289 26.7388 15.5458 26.7388C19.0631 26.7388 21.9141 29.5898 21.9141 33.1071V40.3851C21.9101 43.9006 19.0613 46.7494 15.5458 46.7534ZM15.5458 28.5583C13.0351 28.5614 11.0001 30.5959 10.997 33.1071V40.3851C10.997 42.8972 13.0337 44.9339 15.5458 44.9339C18.0583 44.9339 20.0946 42.8972 20.0946 40.3851V33.1071C20.0915 30.5959 18.0569 28.5614 15.5458 28.5583Z"
              fill="black"/>
        <path d="M39.1995 44.0247C36.1859 44.0216 33.7441 41.5797 33.741 38.5661V36.7466C33.741 33.7322 36.185 31.2881 39.1995 31.2881C42.2144 31.2881 44.658 33.7322 44.658 36.7466V38.5661C44.6549 41.5797 42.2131 44.0216 39.1995 44.0247ZM39.1995 33.1076C37.1899 33.1076 35.5605 34.737 35.5605 36.7466V38.5661C35.5605 40.5758 37.1899 42.2052 39.1995 42.2052C41.2091 42.2052 42.8385 40.5758 42.8385 38.5661V36.7466C42.8385 34.737 41.2091 33.1076 39.1995 33.1076Z"
              fill="black"/>
        <path d="M42.8384 5.81449C41.3312 5.81449 40.1091 4.59245 40.1091 3.08523C40.1091 1.578 41.3312 0.355957 42.8384 0.355957C44.3456 0.355957 45.5677 1.578 45.5677 3.08523C45.5677 4.59245 44.3456 5.81449 42.8384 5.81449ZM42.8384 2.17547C42.336 2.17547 41.9286 2.58282 41.9286 3.08523C41.9286 3.58763 42.336 3.99498 42.8384 3.99498C43.3408 3.99498 43.7482 3.58763 43.7482 3.08523C43.7482 2.58282 43.3408 2.17547 42.8384 2.17547Z"
              fill="black"/>
        <path d="M47.3871 13.093C45.3774 13.093 43.748 11.4636 43.748 9.45397C43.748 7.44433 45.3774 5.81494 47.3871 5.81494C49.3967 5.81494 51.0261 7.44433 51.0261 9.45397C51.0261 11.4636 49.3967 13.093 47.3871 13.093ZM47.3871 7.63445C46.3823 7.63445 45.5676 8.44915 45.5676 9.45397C45.5676 10.4588 46.3823 11.2735 47.3871 11.2735C48.3919 11.2735 49.2066 10.4588 49.2066 9.45397C49.2066 8.44915 48.3919 7.63445 47.3871 7.63445Z"
              fill="black"/>
        <path d="M25.5532 0.355957H10.9971C9.48987 0.355957 8.26783 1.578 8.26783 3.08523C8.26783 4.59245 9.48987 5.81449 10.9971 5.81449H11.9068V7.63401H10.9971C10.4947 7.63401 10.0873 8.04135 10.0873 8.54376V14.0023C10.0873 14.5047 10.4947 14.9121 10.9971 14.9121V15.3923C11.0002 16.4268 10.4156 17.3735 9.48898 17.8332L9.25132 17.9514C5.85173 19.6367 3.70661 23.1083 3.71905 26.9028V48.573C3.72305 52.0886 6.57181 54.9373 10.0873 54.9413H21.0044C24.5199 54.9373 27.3687 52.0886 27.3727 48.573V26.9028C27.3856 23.1083 25.24 19.6367 21.8404 17.9514L21.6032 17.8332C20.6766 17.3735 20.0915 16.4268 20.0946 15.3923V14.9121C20.5971 14.9121 21.0044 14.5047 21.0044 14.0023V8.54376C21.0044 8.04135 20.5971 7.63401 20.0946 7.63401H19.1849V5.81449H25.5532C26.0556 5.81449 26.4629 6.22184 26.4629 6.72425V8.54376C26.4629 9.04617 26.8703 9.45352 27.3727 9.45352H31.0117C31.5141 9.45352 31.9215 9.04617 31.9215 8.54376V6.72425C31.9175 3.20872 29.0687 0.359955 25.5532 0.355957ZM11.9068 9.45352H19.1849V13.0925H11.9068V9.45352ZM20.7898 19.4608L21.0262 19.579C23.8079 20.9578 25.5638 23.7982 25.5532 26.9028V48.573C25.5501 51.0842 23.5156 53.1187 21.0044 53.1218H10.0873C7.57662 53.1187 5.54167 51.0842 5.53856 48.573V26.9028C5.52834 23.7982 7.28389 20.9578 10.0656 19.579L10.3019 19.4608C11.8473 18.695 12.8224 17.1171 12.8166 15.3923V14.9121H18.2751V15.3923C18.2694 17.1171 19.2449 18.695 20.7898 19.4608ZM17.3654 7.63401H13.7264V5.81449H17.3654V7.63401ZM30.102 7.63401H28.2824V6.72425C28.2824 5.21702 27.0604 3.99498 25.5532 3.99498H10.9971C10.4947 3.99498 10.0873 3.58763 10.0873 3.08523C10.0873 2.58282 10.4947 2.17547 10.9971 2.17547H25.5532C28.0643 2.17858 30.0989 4.21309 30.102 6.72425V7.63401Z"
              fill="black"/>
    </g>
    <defs>
        <clipPath id="clip0">
            <rect width="54.5854" height="54.5854" fill="white" transform="translate(0.079834 0.355957)"/>
        </clipPath>
    </defs>
</svg>
