<svg width="56" height="55" viewBox="0 0 56 55" fill="none" xmlns="http://www.w3.org/2000/svg">
    <g clip-path="url(#clip0)">
        <path d="M28.6927 30.1238C28.5917 30.1019 28.4881 30.098 28.3858 30.1133C27.3606 29.9939 26.5872 29.1265 26.5855 28.0948C26.5855 27.6003 26.1846 27.1994 25.6901 27.1994C25.1957 27.1994 24.7948 27.6003 24.7948 28.0948C24.7974 29.8177 25.9498 31.3269 27.6111 31.7829V32.6783C27.6111 33.1727 28.012 33.5736 28.5065 33.5736C29.0009 33.5736 29.4018 33.1727 29.4018 32.6783V31.8371C31.3193 31.4358 32.6226 29.6499 32.421 27.7013C32.2191 25.7528 30.5774 24.272 28.6184 24.2716C27.4957 24.2716 26.5855 23.3614 26.5855 22.2387C26.5855 21.116 27.4957 20.2058 28.6184 20.2058C29.7411 20.2058 30.6513 21.116 30.6513 22.2387C30.6513 22.7331 31.0522 23.134 31.5467 23.134C32.0411 23.134 32.442 22.7331 32.442 22.2387C32.4394 20.4296 31.172 18.8693 29.4018 18.4959V17.681C29.4018 17.1865 29.0009 16.7856 28.5065 16.7856C28.012 16.7856 27.6111 17.1865 27.6111 17.681V18.5506C25.7636 19.0551 24.5744 20.8489 24.8289 22.7471C25.0833 24.6454 26.7031 26.0623 28.6184 26.0619C29.7262 26.0619 30.6299 26.9489 30.65 28.0563C30.6706 29.1637 29.7997 30.0836 28.6927 30.1238Z"
              fill="black"/>
        <path d="M15.635 25.2355C15.635 32.4063 21.4478 38.2191 28.6186 38.2191C35.7893 38.2191 41.6021 32.4063 41.6021 25.2355C41.6021 18.0648 35.7893 12.252 28.6186 12.252C21.4513 12.2598 15.6433 18.0683 15.635 25.2355ZM28.6186 14.0427C34.8004 14.0427 39.8114 19.0537 39.8114 25.2355C39.8114 31.4173 34.8004 36.4284 28.6186 36.4284C22.4368 36.4284 17.4257 31.4173 17.4257 25.2355C17.4327 19.0568 22.4398 14.0497 28.6186 14.0427Z"
              fill="black"/>
        <path d="M46.0156 40.4267L39.0018 43.7406C38.0334 41.9394 36.1758 40.7931 34.1315 40.7354L27.6568 40.5574C26.6316 40.5281 25.6256 40.2685 24.7141 39.7976L24.0553 39.4562C20.6819 37.6978 16.6611 37.7022 13.2913 39.4675L13.3324 37.975C13.3459 37.4805 12.9564 37.0687 12.462 37.0551L5.36205 36.8597C4.8676 36.8462 4.4562 37.2357 4.44265 37.7302L4.01377 53.3106C4.00022 53.8051 4.38975 54.2169 4.88421 54.2304L11.9841 54.4259H12.0086C12.4939 54.4259 12.8908 54.0398 12.904 53.555L12.9245 52.8096L14.769 51.822C15.493 51.4325 16.3394 51.3398 17.1302 51.5636L28.1447 54.655C28.1639 54.6606 28.1832 54.665 28.2028 54.6694C28.999 54.8359 29.8104 54.9195 30.6235 54.919C32.3461 54.9199 34.0485 54.5487 35.614 53.83C35.6525 53.8125 35.6897 53.7919 35.7251 53.7688L51.695 43.4389C52.0929 43.1814 52.2214 42.659 51.9884 42.2463C50.8028 40.1426 48.1731 39.3412 46.0156 40.4267ZM5.82853 52.4651L6.20801 38.6745L11.5176 38.8205L11.1382 52.6115L5.82853 52.4651ZM34.8074 52.2308C32.8624 53.1086 30.69 53.3508 28.5994 52.9237L17.6146 49.8402C16.3783 49.4909 15.0549 49.6356 13.9239 50.2437L12.9813 50.7487L13.2336 41.5796C16.2204 39.593 20.0511 39.3888 23.232 41.0462L23.8909 41.3877C25.0424 41.9822 26.3125 42.3101 27.6078 42.3477L34.083 42.5257C35.9017 42.5781 37.4463 43.8731 37.8153 45.655L28.1705 45.3888C27.676 45.3752 27.2646 45.7652 27.2507 46.2592C27.2371 46.7537 27.6271 47.1655 28.1211 47.1791L38.7648 47.472H38.7897C39.2746 47.4715 39.6711 47.0855 39.6842 46.6011C39.6952 46.212 39.6663 45.8225 39.5977 45.4395L46.7916 42.0404C46.7986 42.0373 46.8056 42.0338 46.8126 42.0303C47.8329 41.514 49.0667 41.6867 49.9061 42.4636L34.8074 52.2308Z"
              fill="black"/>
        <path d="M29.5139 9.73475V1.22885C29.5139 0.734396 29.113 0.333496 28.6185 0.333496C28.124 0.333496 27.7231 0.734396 27.7231 1.22885V9.73475C27.7231 10.2292 28.124 10.6301 28.6185 10.6301C29.113 10.6301 29.5139 10.2292 29.5139 9.73475Z"
              fill="black"/>
        <path d="M36.2287 9.73453V5.70542C36.2287 5.21096 35.8278 4.81006 35.3333 4.81006C34.8389 4.81006 34.438 5.21096 34.438 5.70542V9.73453C34.438 10.229 34.8389 10.6299 35.3333 10.6299C35.8278 10.6299 36.2287 10.229 36.2287 9.73453Z"
              fill="black"/>
        <path d="M22.7988 9.73453V5.70542C22.7988 5.21096 22.3979 4.81006 21.9034 4.81006C21.409 4.81006 21.0081 5.21096 21.0081 5.70542V9.73453C21.0081 10.229 21.409 10.6299 21.9034 10.6299C22.3979 10.6299 22.7988 10.229 22.7988 9.73453Z"
              fill="black"/>
    </g>
    <defs>
        <clipPath id="clip0">
            <rect width="54.5854" height="54.5854" fill="white" transform="translate(0.6875 0.333496)"/>
        </clipPath>
    </defs>
</svg>
