<svg width="59" height="56" viewBox="0 0 59 56" fill="none" xmlns="http://www.w3.org/2000/svg">
    <rect x="25.5574" y="17.5396" width="24.8115" height="8.93215" rx="2.97738" transform="rotate(-180 25.5574 17.5396)"
          fill="#365193"/>
    <g clip-path="url(#clip0)">
        <path d="M55.2413 23.8664H55.6171C57.1243 23.8664 58.3464 22.6444 58.3464 21.1372C58.3464 19.6299 57.1243 18.4079 55.6171 18.4079H52.8878C52.8803 11.8792 47.5896 6.58861 41.061 6.58105H21.0464C14.5177 6.58861 9.22707 11.8792 9.21952 18.4079H6.49025C4.98303 18.4079 3.76099 19.6299 3.76099 21.1372C3.76099 22.6444 4.98303 23.8664 6.49025 23.8664H6.86606C4.94349 25.0138 3.76454 27.0861 3.76099 29.325V37.5128C3.7641 40.0239 5.79861 42.0584 8.30977 42.0615H9.21952V44.7908C9.22263 47.302 11.2571 49.3365 13.7683 49.3396H17.4073C19.9185 49.3365 21.953 47.302 21.9561 44.7908V42.0615H40.1512V44.7908C40.1543 47.302 42.1889 49.3365 44.7 49.3396H48.339C50.8502 49.3365 52.8847 47.302 52.8878 44.7908V42.0615H53.7976C56.3087 42.0584 58.3432 40.0239 58.3464 37.5128V29.325C58.3428 27.0861 57.1638 25.0138 55.2413 23.8664ZM55.6171 20.2274C56.1195 20.2274 56.5268 20.6347 56.5268 21.1372C56.5268 21.6396 56.1195 22.0469 55.6171 22.0469H52.8878V20.2274H55.6171ZM11.039 18.4079C11.0457 12.8836 15.5221 8.40723 21.0464 8.40057H41.061C46.5853 8.40723 51.0616 12.8836 51.0683 18.4079V22.9567H11.039V18.4079ZM5.5805 21.1372C5.5805 20.6347 5.98785 20.2274 6.49025 20.2274H9.21952V22.0469H6.49025C5.98785 22.0469 5.5805 21.6396 5.5805 21.1372ZM20.1366 44.7908C20.1366 46.298 18.9146 47.5201 17.4073 47.5201H13.7683C12.2611 47.5201 11.039 46.298 11.039 44.7908V42.0615H20.1366V44.7908ZM51.0683 44.7908C51.0683 46.298 49.8463 47.5201 48.339 47.5201H44.7C43.1928 47.5201 41.9707 46.298 41.9707 44.7908V42.0615H51.0683V44.7908ZM56.5268 37.5128C56.5268 39.02 55.3048 40.242 53.7976 40.242H8.30977C6.80254 40.242 5.5805 39.02 5.5805 37.5128V29.325C5.58361 26.8138 7.61812 24.7793 10.1293 24.7762H51.9781C54.4892 24.7793 56.5237 26.8138 56.5268 29.325V37.5128Z"
              fill="black"/>
        <path d="M12.8587 22.0466H49.249C49.7514 22.0466 50.1587 21.6393 50.1587 21.1369V18.4076C50.1534 13.3853 46.0835 9.31539 41.0612 9.31006H21.0465C16.0242 9.31539 11.9543 13.3853 11.949 18.4076V21.1369C11.949 21.6393 12.3563 22.0466 12.8587 22.0466ZM13.7685 18.4076C13.7729 14.3901 17.029 11.134 21.0465 11.1296H41.0612C45.0787 11.134 48.3348 14.3901 48.3392 18.4076V20.2271H13.7685V18.4076Z"
              fill="black"/>
        <path d="M14.6781 32.9644H11.0391C9.53185 32.9644 8.30981 34.1864 8.30981 35.6936C8.30981 37.2009 9.53185 38.4229 11.0391 38.4229H14.6781C16.1853 38.4229 17.4074 37.2009 17.4074 35.6936C17.4074 34.1864 16.1853 32.9644 14.6781 32.9644ZM14.6781 36.6034H11.0391C10.5367 36.6034 10.1293 36.196 10.1293 35.6936C10.1293 35.1912 10.5367 34.7839 11.0391 34.7839H14.6781C15.1805 34.7839 15.5879 35.1912 15.5879 35.6936C15.5879 36.196 15.1805 36.6034 14.6781 36.6034Z"
              fill="black"/>
        <path d="M51.0685 32.9644H47.4295C45.9222 32.9644 44.7002 34.1864 44.7002 35.6936C44.7002 37.2009 45.9222 38.4229 47.4295 38.4229H51.0685C52.5757 38.4229 53.7978 37.2009 53.7978 35.6936C53.7978 34.1864 52.5757 32.9644 51.0685 32.9644ZM51.0685 36.6034H47.4295C46.9271 36.6034 46.5197 36.196 46.5197 35.6936C46.5197 35.1912 46.9271 34.7839 47.4295 34.7839H51.0685C51.5709 34.7839 51.9782 35.1912 51.9782 35.6936C51.9782 36.196 51.5709 36.6034 51.0685 36.6034Z"
              fill="black"/>
        <path d="M36.5122 31.1445H25.5951C22.0796 31.1485 19.2308 33.9973 19.2268 37.5128C19.2268 38.0152 19.6342 38.4226 20.1366 38.4226H41.9707C42.4731 38.4226 42.8805 38.0152 42.8805 37.5128C42.8765 33.9973 40.0277 31.1485 36.5122 31.1445ZM26.5049 32.964H30.1439V36.6031H26.5049V32.964ZM31.9634 32.964H35.6024V36.6031H31.9634V32.964ZM24.6853 33.064V36.6031H21.1374C21.5065 34.8204 22.9018 33.4287 24.6853 33.064ZM37.4219 36.6031V33.064C39.2055 33.4287 40.6007 34.8204 40.9699 36.6031H37.4219Z"
              fill="black"/>
    </g>
    <defs>
        <clipPath id="clip0">
            <rect width="54.5854" height="54.5854" fill="white" transform="translate(3.76099 0.667969)"/>
        </clipPath>
    </defs>
</svg>
