<svg width="61" height="58" viewBox="0 0 61 58" fill="none" xmlns="http://www.w3.org/2000/svg">
    <path d="M29.0166 0.747128L57.5338 18.4878L57.5338 25.5586L29.0164 7.75186L29.0166 0.747128Z" fill="#365193"/>
    <g clip-path="url(#clip0)">
        <path d="M53.9215 26.7466C54.2023 26.9207 54.555 26.9287 54.8433 26.7684C55.132 26.6076 55.3106 26.3037 55.3106 25.9732V20.5147C55.3106 20.1998 55.148 19.9075 54.8801 19.7413L28.4973 3.36576C28.2036 3.18407 27.8323 3.18407 27.5387 3.36576L15.2814 10.9743V8.6879C15.2814 8.1855 14.8741 7.77815 14.3717 7.77815H10.7326C10.2302 7.77815 9.82288 8.1855 9.82288 8.6879V14.3623L1.15579 19.7413C0.887925 19.9075 0.725342 20.1998 0.725342 20.5147V25.9732C0.725342 26.3037 0.904361 26.6076 1.19266 26.7684C1.48095 26.9287 1.8341 26.9207 2.1144 26.7466L4.36436 25.35V56.9049C4.36436 57.4073 4.7717 57.8146 5.27411 57.8146H50.7618C51.2642 57.8146 51.6716 57.4073 51.6716 56.9049V47.4826C53.5684 46.8145 54.9428 45.1562 55.2475 43.1688C55.5518 41.181 54.7367 39.1873 53.1273 37.9822C53.0415 37.9186 52.9545 37.8693 52.8678 37.812C54.0228 35.4066 53.5444 32.5347 51.6716 30.6339V25.35L53.9215 26.7466ZM11.6424 9.59766H13.4619V12.1021L11.6424 13.2313V9.59766ZM2.54485 21.0216L28.018 5.21014L53.4911 21.0207V24.3359L28.4973 8.82428C28.2036 8.64259 27.8323 8.64259 27.5387 8.82428L2.54485 24.3359V21.0216ZM11.6424 55.9951V32.3415H22.5594V55.9951H11.6424ZM40.7545 55.9951V43.2586H42.574V55.9951H40.7545ZM49.8521 55.9951H44.3935V47.8073H49.8521V55.9951ZM53.4911 42.3488C53.488 44.0817 52.2664 45.5734 50.5681 45.9181C50.3327 45.9665 50.0924 45.99 49.8521 45.9878H44.3935V42.3488C44.3935 41.8464 43.9862 41.439 43.4838 41.439H39.8448C39.3424 41.439 38.935 41.8464 38.935 42.3488V45.9878H32.5667C31.0595 45.9878 29.8375 44.7662 29.8375 43.2586C29.841 42.7744 29.9747 42.3004 30.2253 41.8859C31.0799 42.7624 32.2522 43.2572 33.4765 43.2586C33.5889 43.2608 33.7008 43.2492 33.8105 43.2239C34.2832 43.1106 34.583 42.6455 34.4915 42.168C34.3996 41.6905 33.9487 41.3693 33.4676 41.439C31.9635 41.4342 30.7472 40.2139 30.7472 38.7098C30.7472 38.5814 30.7561 38.453 30.7739 38.326C30.8983 37.4349 31.4584 36.6642 32.2673 36.2702C32.4601 36.1706 32.6645 36.0965 32.8759 36.0498H32.8843C33.5302 35.9072 34.2059 36.0045 34.7856 36.3226C35.224 36.5691 35.7789 36.4136 36.0254 35.9756C36.2715 35.5376 36.1165 34.9824 35.678 34.7363C35.0224 34.3769 34.2881 34.185 33.54 34.1775C33.5182 34.1775 33.4991 34.1646 33.4765 34.1646C33.3912 34.1646 33.309 34.1859 33.2246 34.1903C33.07 34.1983 32.9172 34.2139 32.7697 34.2365C32.7058 34.2467 32.6405 34.2432 32.5778 34.2556C32.5778 34.225 32.5712 34.1957 32.5712 34.1646C32.5747 32.4312 33.7972 30.9396 35.4963 30.5957C35.7295 30.546 35.9672 30.5211 36.2057 30.522C36.9809 30.5198 37.7361 30.7677 38.3593 31.2283C38.764 31.5259 39.3335 31.4393 39.6315 31.0346C39.9296 30.6299 39.843 30.0605 39.4383 29.7624C38.5299 29.0943 37.4358 28.7265 36.3088 28.7109H36.2977C36.303 28.6852 36.3141 28.6616 36.3195 28.6372C36.375 28.3884 36.451 28.145 36.5469 27.9091C36.5833 27.8185 36.6326 27.7399 36.6735 27.6546C36.7508 27.4893 36.8379 27.329 36.9347 27.1744C36.9929 27.0833 37.0591 26.9994 37.1239 26.9141C37.2234 26.7786 37.3309 26.6484 37.4451 26.5245C37.5215 26.4437 37.6015 26.3673 37.6832 26.2917C37.8049 26.1798 37.9329 26.0741 38.0661 25.9759C38.1572 25.9097 38.2482 25.8453 38.3393 25.7849C38.4841 25.6956 38.6338 25.6143 38.7875 25.541C38.8839 25.4948 38.9785 25.4446 39.0798 25.4046C39.2562 25.3376 39.4365 25.2816 39.62 25.2363C39.7111 25.2136 39.7968 25.1821 39.8932 25.1639C40.4769 25.0413 41.0792 25.0382 41.6643 25.1545C41.7607 25.1736 41.8464 25.2145 41.9375 25.2403C42.1325 25.2878 42.3244 25.3487 42.5114 25.422C42.6113 25.4646 42.6988 25.5268 42.7944 25.5748C42.9623 25.6538 43.1253 25.7422 43.283 25.8404C43.3736 25.9044 43.4576 25.987 43.5473 26.0572C43.6894 26.1616 43.8258 26.2744 43.9551 26.3943C44.0417 26.4801 44.1088 26.5818 44.1879 26.6738C44.3029 26.7981 44.4104 26.9287 44.5108 27.0651C44.5828 27.1704 44.633 27.2899 44.6929 27.4018C44.78 27.5413 44.8586 27.6857 44.9284 27.8345C44.9803 27.9558 45.0088 28.0886 45.0496 28.2161C45.1069 28.3693 45.1554 28.5257 45.1949 28.6843C45.2233 28.8162 45.2242 28.9575 45.2398 29.093C45.2669 29.2604 45.2837 29.4292 45.2904 29.5989C45.2864 29.6318 45.2837 29.6647 45.2833 29.698C45.278 30.5344 45.0336 31.3522 44.5792 32.055C44.3096 32.481 44.4366 33.0451 44.8626 33.3148C45.2886 33.584 45.8528 33.4574 46.122 33.0314C46.6048 32.2727 46.9198 31.4193 47.0446 30.5287C47.0708 30.5287 47.0939 30.522 47.1201 30.522C48.6887 30.5229 50.1457 31.3314 50.9764 32.6618C51.807 33.9922 51.8937 35.6567 51.206 37.0662C51.1221 37.0449 51.0377 37.0178 50.9546 37.0031C50.5921 36.9263 50.2225 36.8885 49.8521 36.8903C48.1298 36.8836 46.5067 37.6961 45.4796 39.0794C45.1785 39.4814 45.2598 40.0513 45.6618 40.3529C46.0638 40.6546 46.6342 40.5728 46.9353 40.1708C47.6199 39.2477 48.7029 38.7049 49.8521 38.7098C50.103 38.708 50.3536 38.7338 50.5992 38.7862C50.836 38.8306 51.0657 38.9061 51.2833 39.0101C51.5512 39.1185 51.8035 39.2619 52.0336 39.437C52.9478 40.1264 53.4871 41.2036 53.4911 42.3488ZM49.8521 24.223V29.3177C49.813 29.2986 49.7712 29.2857 49.7321 29.2675C49.5837 29.2013 49.4336 29.1383 49.2772 29.0854C49.1991 29.0565 49.1195 29.0321 49.0396 29.0063C48.9152 28.9664 48.7886 28.9308 48.6611 28.8993C48.5647 28.8744 48.4683 28.8509 48.371 28.8309C48.2582 28.8082 48.1436 28.7918 48.0299 28.7753C47.9162 28.7589 47.8207 28.7416 47.7149 28.7318C47.5204 28.7127 47.3222 28.7025 47.1228 28.7025H47.0993C47.0855 28.7025 47.0717 28.7025 47.0584 28.7025C47.0482 28.6336 47.0308 28.5661 47.0193 28.4968C47.0037 28.4062 46.9882 28.3231 46.9691 28.2378C46.9438 28.1223 46.9127 28.0095 46.878 27.8976C46.8554 27.8167 46.8345 27.7345 46.8092 27.6555C46.771 27.5382 46.7261 27.4236 46.6817 27.309C46.6533 27.2388 46.6297 27.1668 46.6 27.098C46.5426 26.9661 46.4787 26.8386 46.4134 26.712C46.3885 26.6631 46.3667 26.6129 46.3414 26.5658C46.2504 26.3926 46.1437 26.2247 46.0349 26.0625C46.0131 26.0288 45.9865 25.999 45.9638 25.9661C45.8728 25.8377 45.7817 25.712 45.6835 25.5912C45.64 25.5375 45.5925 25.4877 45.5463 25.4357C45.4636 25.3402 45.3797 25.2456 45.2917 25.1545C45.2371 25.0999 45.1798 25.0479 45.1234 24.9946C45.0376 24.9133 44.9515 24.8325 44.8604 24.7561C44.7982 24.7032 44.7347 24.6544 44.6712 24.6042C44.5801 24.5331 44.489 24.4642 44.398 24.3976C44.3291 24.3496 44.2598 24.3065 44.1887 24.2586C44.0981 24.1977 43.9977 24.1382 43.8996 24.0818C43.8258 24.04 43.7512 24 43.6757 23.9609C43.5748 23.9081 43.4722 23.8592 43.3683 23.8117C43.291 23.777 43.2146 23.7428 43.1364 23.7108C43.028 23.6673 42.9178 23.6282 42.8068 23.5909C42.7286 23.5634 42.6513 23.5354 42.5714 23.5114C42.4541 23.4772 42.335 23.4488 42.2155 23.4208C42.1382 23.4026 42.0618 23.3826 41.9837 23.367C41.8499 23.3404 41.7109 23.3222 41.5781 23.3039C41.5106 23.2959 41.4453 23.2831 41.3769 23.2768C41.173 23.256 40.9646 23.244 40.7545 23.244C40.5444 23.244 40.3307 23.256 40.118 23.276C40.0487 23.2831 39.9811 23.2968 39.9132 23.3062C39.7755 23.3239 39.64 23.3413 39.5036 23.3688C39.4236 23.3843 39.3463 23.407 39.2682 23.4252C39.1469 23.4541 39.027 23.4825 38.9044 23.5163C38.8231 23.5407 38.744 23.5709 38.664 23.5989C38.553 23.6371 38.4419 23.6753 38.3335 23.7197C38.2527 23.7535 38.1745 23.7908 38.0954 23.8272C37.9924 23.8748 37.8898 23.9183 37.7898 23.9747C37.7107 24.0165 37.6352 24.0609 37.5588 24.1057C37.462 24.1622 37.3665 24.2186 37.2736 24.2785C37.1995 24.3274 37.1275 24.3785 37.0546 24.4305C36.9636 24.4949 36.8725 24.5597 36.7917 24.6277C36.7215 24.6832 36.6535 24.7405 36.586 24.7987C36.5038 24.8711 36.4225 24.9449 36.343 25.0199C36.2786 25.0817 36.216 25.1448 36.1538 25.2092C36.0783 25.2882 36.0058 25.3682 35.9339 25.4513C35.8757 25.5192 35.8175 25.5877 35.762 25.6578C35.6936 25.7431 35.6292 25.8306 35.5661 25.9195C35.5137 25.9923 35.4617 26.0661 35.4124 26.1407C35.3524 26.2318 35.2969 26.3228 35.2422 26.4219C35.1969 26.4992 35.1516 26.5774 35.1085 26.6573C35.0579 26.7551 35.0112 26.855 34.965 26.9549C34.9268 27.0367 34.8878 27.1189 34.8531 27.2024C34.8114 27.3054 34.7749 27.4116 34.7385 27.5173C34.7083 27.6026 34.6754 27.6875 34.6474 27.7745C34.6137 27.8838 34.5884 27.9966 34.5608 28.1086C34.5399 28.1996 34.5155 28.2805 34.4982 28.3689C34.4746 28.4879 34.4591 28.6097 34.4426 28.7327C34.4307 28.8171 34.4147 28.9002 34.4062 28.9855V29.0019C34.368 29.0157 34.3334 29.0365 34.2952 29.0503C34.1779 29.0947 34.0668 29.1485 33.954 29.2005C33.7941 29.272 33.6368 29.3466 33.4858 29.4332C33.3765 29.4967 33.2726 29.566 33.1682 29.6371C33.0261 29.7277 32.8888 29.8308 32.7569 29.9379C32.6596 30.0183 32.5667 30.1009 32.4748 30.1875C32.3513 30.3039 32.2349 30.4247 32.123 30.5513C32.0399 30.6424 31.959 30.733 31.8826 30.837C31.7782 30.9733 31.6836 31.1164 31.5917 31.2616C31.5268 31.3647 31.4606 31.4664 31.4024 31.5739C31.3189 31.7325 31.2434 31.8951 31.1768 32.0612C31.131 32.1687 31.0857 32.2727 31.044 32.3824C30.9813 32.5716 30.9293 32.7644 30.8885 32.9594C30.8663 33.0567 30.8356 33.1504 30.8183 33.2486C30.7166 33.8256 30.7117 34.4156 30.8036 34.9944V35.0228C30.6664 35.1214 30.5349 35.228 30.4096 35.3422C30.3972 35.3528 30.3843 35.3631 30.3723 35.3746C30.2342 35.5021 30.104 35.6376 29.9832 35.7815C29.9414 35.8313 29.905 35.8841 29.8659 35.9352C29.7864 36.0378 29.7091 36.1418 29.6393 36.2497C29.5994 36.3128 29.5629 36.3772 29.5256 36.4421C29.4657 36.5465 29.4092 36.6522 29.3573 36.761C29.3244 36.8303 29.2942 36.9005 29.2662 36.9716C29.22 37.0831 29.1796 37.1977 29.1423 37.3145C29.1196 37.3851 29.0961 37.4553 29.077 37.5273C29.0423 37.6566 29.017 37.7876 28.9943 37.9195C28.9832 37.9822 28.9686 38.0439 28.9606 38.1074C28.8997 38.5343 28.9051 38.9674 28.977 39.3921C28.9868 39.4578 29.0015 39.5223 29.0143 39.5871C29.0485 39.7599 29.093 39.9309 29.1472 40.0993C29.1596 40.1375 29.1645 40.1775 29.1769 40.2157C29.1596 40.2348 29.148 40.2574 29.1307 40.2765C28.9655 40.4622 28.8158 40.6612 28.683 40.8713C28.6767 40.8816 28.6723 40.8913 28.6665 40.9015C28.5439 41.105 28.4377 41.3178 28.3493 41.5386C28.332 41.5803 28.3138 41.6212 28.2983 41.6629C28.2143 41.8882 28.149 42.1196 28.1028 42.3555C28.0926 42.4026 28.0864 42.4461 28.0779 42.4972C28.0371 42.749 28.0171 43.0036 28.018 43.2586C28.0211 45.7697 30.056 47.8047 32.5667 47.8073H38.935V55.9951H24.3789V31.4318C24.3789 30.9293 23.9716 30.522 23.4692 30.522H10.7326C10.2302 30.522 9.82288 30.9293 9.82288 31.4318V55.9951H6.18387V24.223L28.018 10.6678L49.8521 24.223Z"
              fill="black"/>
        <path d="M28.0179 25.9727C31.0328 25.9727 33.4764 23.5291 33.4764 20.5142C33.4764 17.4997 31.0328 15.0557 28.0179 15.0557C25.0034 15.0557 22.5593 17.4997 22.5593 20.5142C22.5624 23.5278 25.0043 25.9701 28.0179 25.9727ZM24.5081 21.424H27.1081V24.024C25.835 23.6912 24.8408 22.6971 24.5081 21.424ZM28.9276 24.024V21.424H31.5276C31.1949 22.6971 30.2007 23.6912 28.9276 24.024ZM31.5276 19.6044H28.9276V17.0044C30.2007 17.3372 31.1949 18.3313 31.5276 19.6044ZM27.1081 17.0044V19.6044H24.5081C24.8408 18.3313 25.835 17.3372 27.1081 17.0044Z"
              fill="black"/>
    </g>
    <defs>
        <clipPath id="clip0">
            <rect width="54.5854" height="54.5854" fill="white" transform="translate(0.725342 3.22852)"/>
        </clipPath>
    </defs>
</svg>
