<svg width="56" height="55" viewBox="0 0 56 55" fill="none" xmlns="http://www.w3.org/2000/svg">
    <path d="M52.523 0.333496H3.58437C2.02517 0.333496 0.760986 1.59768 0.760986 3.15688V52.0955C0.760986 53.6547 2.02517 54.9189 3.58437 54.9189H52.523C54.0822 54.9189 55.3464 53.6547 55.3464 52.0955V3.15688C55.3464 1.59768 54.0822 0.333496 52.523 0.333496ZM53.4641 3.15688V26.6851H44.7306C44.374 26.6851 44.0482 26.8863 43.8888 27.2052C43.7293 27.5242 43.7638 27.9056 43.9775 28.1909C44.653 29.1197 45.0096 30.2423 44.994 31.3907C44.994 33.9852 43.3056 36.0963 41.2294 36.0963C39.1533 36.0963 37.4649 33.9852 37.4649 31.3907C37.4489 30.2423 37.8045 29.1201 38.4796 28.1909C38.6933 27.9056 38.7277 27.5242 38.5683 27.2052C38.4088 26.8863 38.083 26.6851 37.7264 26.6851H28.9948V19.554C29.8923 19.9152 30.8509 20.0995 31.8182 20.0972C35.4508 20.0972 38.4061 17.5647 38.4061 14.4504C38.4061 11.3361 35.4508 8.80364 31.8182 8.80364C30.8509 8.80134 29.8923 8.98561 28.9948 9.34681V2.21575H52.523C53.0427 2.21575 53.4641 2.63714 53.4641 3.15688ZM2.64324 3.15688C2.64324 2.63714 3.06463 2.21575 3.58437 2.21575H27.1125V10.9492C27.1125 11.3058 27.3138 11.6316 27.6327 11.7911C27.9517 11.9505 28.3331 11.9161 28.6184 11.7024C29.5476 11.0273 30.6698 10.6712 31.8182 10.6859C34.4127 10.6859 36.5238 12.3742 36.5238 14.4504C36.5238 16.5266 34.4127 18.2149 31.8182 18.2149C30.6703 18.2305 29.5476 17.8744 28.6184 17.2003C28.3331 16.9866 27.9517 16.9521 27.6327 17.1116C27.3138 17.271 27.1125 17.5968 27.1125 17.9534V26.6851H19.9815C20.3427 25.7876 20.527 24.829 20.5247 23.8617C20.5247 20.23 17.9922 17.2738 14.8779 17.2738C11.7636 17.2738 9.23113 20.23 9.23113 23.8617C9.22883 24.829 9.41311 25.7876 9.7743 26.6851H2.64324V3.15688ZM2.64324 52.0955V28.5673H11.3767C11.7333 28.5673 12.0591 28.366 12.2186 28.0471C12.378 27.7282 12.3436 27.3468 12.1299 27.0614C11.4544 26.1327 11.0978 25.01 11.1134 23.8617C11.1134 21.2671 12.8017 19.156 14.8779 19.156C16.9541 19.156 18.6424 21.2671 18.6424 23.8617C18.6585 25.01 18.3028 26.1322 17.6277 27.0614C17.4141 27.3468 17.3796 27.7282 17.5391 28.0471C17.6985 28.366 18.0243 28.5673 18.3809 28.5673H27.1125V35.6984C26.2151 35.3372 25.2565 35.1529 24.2892 35.1552C20.6565 35.1552 17.7013 37.6877 17.7013 40.802C17.7013 43.9162 20.6565 46.4487 24.2892 46.4487C25.2565 46.451 26.2151 46.2667 27.1125 45.9055V53.0366H3.58437C3.06463 53.0366 2.64324 52.6152 2.64324 52.0955ZM53.4641 52.0955C53.4641 52.6152 53.0427 53.0366 52.523 53.0366H28.9948V44.3032C28.9948 43.9466 28.7935 43.6207 28.4746 43.4613C28.1557 43.3018 27.7743 43.3363 27.4889 43.55C26.5597 44.225 25.4375 44.5812 24.2892 44.5665C21.6946 44.5665 19.5835 42.8781 19.5835 40.802C19.5835 38.7258 21.6946 37.0374 24.2892 37.0374C25.4371 37.0218 26.5597 37.378 27.4889 38.0521C27.7743 38.2658 28.1557 38.3003 28.4746 38.1408C28.7935 37.9813 28.9948 37.6555 28.9948 37.2989V28.5673H36.1259C35.7647 29.4648 35.5804 30.4234 35.5827 31.3907C35.5827 35.0224 38.1152 37.9786 41.2294 37.9786C44.3437 37.9786 46.8762 35.0224 46.8762 31.3907C46.8785 30.4234 46.6942 29.4648 46.333 28.5673H53.4641V52.0955Z"
          fill="black"/>
</svg>
