<svg width="55" height="56" viewBox="0 0 55 56" fill="none" xmlns="http://www.w3.org/2000/svg">
    <g clip-path="url(#clip0)">
        <rect x="24.1951" y="34.4194" width="26.7965" height="16.8718" rx="4.96231" fill="#365193"/>
        <path d="M50.4126 7.95383H43.1345V7.04407C43.1301 3.52899 40.2813 0.680223 36.7662 0.675781H25.8491C22.3341 0.680223 19.4853 3.52899 19.4809 7.04407V7.95383H12.2028C9.69165 7.95694 7.65713 9.99145 7.65403 12.5026V27.9685H4.92476C2.4136 27.9716 0.379086 30.0061 0.375977 32.5172V50.7124C0.379086 53.2235 2.4136 55.258 4.92476 55.2611H34.0369C36.5481 55.258 38.5826 53.2235 38.5857 50.7124V42.5246H50.4126C52.9237 42.5215 54.9582 40.4869 54.9613 37.9758V12.5026C54.9582 9.99145 52.9237 7.95694 50.4126 7.95383ZM21.3004 7.04407C21.3035 4.53292 23.338 2.4984 25.8491 2.49529H36.7662C39.2774 2.4984 41.3119 4.53292 41.315 7.04407V7.95383H21.3004V7.04407ZM36.7662 50.7124C36.7662 52.2196 35.5442 53.4416 34.0369 53.4416H4.92476C3.41753 53.4416 2.19549 52.2196 2.19549 50.7124V32.5172C2.19549 31.01 3.41753 29.788 4.92476 29.788H34.0369C35.5442 29.788 36.7662 31.01 36.7662 32.5172V50.7124ZM26.7589 27.9685H12.2028V27.0587C12.2028 25.5515 13.4248 24.3294 14.9321 24.3294H24.0296C25.5369 24.3294 26.7589 25.5515 26.7589 27.0587V27.9685ZM53.1418 37.9758C53.1418 39.483 51.9198 40.705 50.4126 40.705H38.5857V32.5172C38.5826 30.0061 36.5481 27.9716 34.0369 27.9685H28.5784V27.0587C28.5753 24.5476 26.5408 22.513 24.0296 22.5099H14.9321C12.4209 22.513 10.3864 24.5476 10.3833 27.0587V27.9685H9.47354V12.5026C9.47354 10.9954 10.6956 9.77334 12.2028 9.77334H50.4126C51.9198 9.77334 53.1418 10.9954 53.1418 12.5026V37.9758Z"
              fill="black"/>
        <path d="M31.3077 11.5928C30.8053 11.5928 30.3979 12.0001 30.3979 12.5025V25.2391C30.3979 25.7415 30.8053 26.1489 31.3077 26.1489C31.8101 26.1489 32.2175 25.7415 32.2175 25.2391V12.5025C32.2175 12.0001 31.8101 11.5928 31.3077 11.5928Z"
              fill="black"/>
        <path d="M42.2247 11.5928C41.7223 11.5928 41.3149 12.0001 41.3149 12.5025V37.9757C41.3149 38.4781 41.7223 38.8855 42.2247 38.8855C42.7271 38.8855 43.1345 38.4781 43.1345 37.9757V12.5025C43.1345 12.0001 42.7271 11.5928 42.2247 11.5928Z"
              fill="black"/>
        <path d="M20.3907 11.5928C19.8883 11.5928 19.481 12.0001 19.481 12.5025V19.7806C19.481 20.283 19.8883 20.6903 20.3907 20.6903C20.8931 20.6903 21.3005 20.283 21.3005 19.7806V12.5025C21.3005 12.0001 20.8931 11.5928 20.3907 11.5928Z"
              fill="black"/>
    </g>
    <defs>
        <clipPath id="clip0">
            <rect width="54.5854" height="54.5854" fill="white" transform="translate(0.375977 0.675781)"/>
        </clipPath>
    </defs>
</svg>
