<svg width="56" height="56" viewBox="0 0 56 56" fill="none" xmlns="http://www.w3.org/2000/svg">
    <g clip-path="url(#clip0)">
        <path d="M51.3885 53.471V18.9003C51.3885 18.4827 51.1042 18.1189 50.6991 18.0176L33.1934 13.6408V8.89298C33.1934 8.48075 32.9162 8.12049 32.5181 8.01388L5.22547 0.735826C4.95272 0.662975 4.66087 0.721167 4.43698 0.893523C4.21265 1.06544 4.08116 1.33197 4.08116 1.61493V53.471H0.442139V55.2905H55.0275V53.471H51.3885ZM5.90067 2.79744L31.3738 9.58951V53.471H26.8251V43.4637C26.8251 42.9613 26.4177 42.554 25.9153 42.554H11.3592C10.8568 42.554 10.4495 42.9613 10.4495 43.4637V53.471H5.90067V2.79744ZM12.269 44.3735H17.7275V53.471H12.269V44.3735ZM19.547 53.471V44.3735H25.0056V53.471H19.547ZM38.6519 53.471V46.193H44.1104V53.471H38.6519ZM45.9299 53.471V45.2832C45.9299 44.7808 45.5226 44.3735 45.0202 44.3735H37.7421C37.2397 44.3735 36.8324 44.7808 36.8324 45.2832V53.471H33.1934V15.5167L49.569 19.6106V53.471H45.9299Z"
              fill="black"/>
        <path d="M12.2689 38.9156H15.9079C16.4103 38.9156 16.8177 38.5082 16.8177 38.0058V34.3668C16.8177 33.8644 16.4103 33.457 15.9079 33.457H12.2689C11.7665 33.457 11.3591 33.8644 11.3591 34.3668V38.0058C11.3591 38.5082 11.7665 38.9156 12.2689 38.9156ZM13.1786 35.2765H14.9982V37.0961H13.1786V35.2765Z"
              fill="black"/>
        <path d="M21.3665 38.9156H25.0056C25.508 38.9156 25.9153 38.5082 25.9153 38.0058V34.3668C25.9153 33.8644 25.508 33.457 25.0056 33.457H21.3665C20.8641 33.457 20.4568 33.8644 20.4568 34.3668V38.0058C20.4568 38.5082 20.8641 38.9156 21.3665 38.9156ZM22.2763 35.2765H24.0958V37.0961H22.2763V35.2765Z"
              fill="black"/>
        <path d="M39.5617 35.2764H35.9227C35.4203 35.2764 35.0129 35.6837 35.0129 36.1861V39.8252C35.0129 40.3276 35.4203 40.7349 35.9227 40.7349H39.5617C40.0641 40.7349 40.4715 40.3276 40.4715 39.8252V36.1861C40.4715 35.6837 40.0641 35.2764 39.5617 35.2764ZM38.652 38.9154H36.8325V37.0959H38.652V38.9154Z"
              fill="black"/>
        <path d="M46.8398 35.2764H43.2008C42.6984 35.2764 42.291 35.6837 42.291 36.1861V39.8252C42.291 40.3276 42.6984 40.7349 43.2008 40.7349H46.8398C47.3422 40.7349 47.7496 40.3276 47.7496 39.8252V36.1861C47.7496 35.6837 47.3422 35.2764 46.8398 35.2764ZM45.93 38.9154H44.1105V37.0959H45.93V38.9154Z"
              fill="black"/>
        <path d="M39.5617 27.999H35.9227C35.4203 27.999 35.0129 28.4064 35.0129 28.9088V32.5478C35.0129 33.0502 35.4203 33.4576 35.9227 33.4576H39.5617C40.0641 33.4576 40.4715 33.0502 40.4715 32.5478V28.9088C40.4715 28.4064 40.0641 27.999 39.5617 27.999ZM38.652 31.638H36.8325V29.8185H38.652V31.638Z"
              fill="black"/>
        <path d="M46.8398 27.999H43.2008C42.6984 27.999 42.291 28.4064 42.291 28.9088V32.5478C42.291 33.0502 42.6984 33.4576 43.2008 33.4576H46.8398C47.3422 33.4576 47.7496 33.0502 47.7496 32.5478V28.9088C47.7496 28.4064 47.3422 27.999 46.8398 27.999ZM45.93 31.638H44.1105V29.8185H45.93V31.638Z"
              fill="black"/>
        <path d="M39.5617 20.7207H35.9227C35.4203 20.7207 35.0129 21.128 35.0129 21.6305V25.2695C35.0129 25.7719 35.4203 26.1792 35.9227 26.1792H39.5617C40.0641 26.1792 40.4715 25.7719 40.4715 25.2695V21.6305C40.4715 21.128 40.0641 20.7207 39.5617 20.7207ZM38.652 24.3597H36.8325V22.5402H38.652V24.3597Z"
              fill="black"/>
        <path d="M46.8398 20.7207H43.2008C42.6984 20.7207 42.291 21.128 42.291 21.6305V25.2695C42.291 25.7719 42.6984 26.1792 43.2008 26.1792H46.8398C47.3422 26.1792 47.7496 25.7719 47.7496 25.2695V21.6305C47.7496 21.128 47.3422 20.7207 46.8398 20.7207ZM45.93 24.3597H44.1105V22.5402H45.93V24.3597Z"
              fill="black"/>
        <path d="M12.2689 31.6377H15.9079C16.4103 31.6377 16.8177 31.2304 16.8177 30.728V27.089C16.8177 26.5865 16.4103 26.1792 15.9079 26.1792H12.2689C11.7665 26.1792 11.3591 26.5865 11.3591 27.089V30.728C11.3591 31.2304 11.7665 31.6377 12.2689 31.6377ZM13.1786 27.9987H14.9982V29.8182H13.1786V27.9987Z"
              fill="black"/>
        <path d="M21.3665 31.6377H25.0056C25.508 31.6377 25.9153 31.2304 25.9153 30.728V27.089C25.9153 26.5865 25.508 26.1792 25.0056 26.1792H21.3665C20.8641 26.1792 20.4568 26.5865 20.4568 27.089V30.728C20.4568 31.2304 20.8641 31.6377 21.3665 31.6377ZM22.2763 27.9987H24.0958V29.8182H22.2763V27.9987Z"
              fill="black"/>
        <path d="M12.2689 24.3599H15.9079C16.4103 24.3599 16.8177 23.9526 16.8177 23.4501V19.8111C16.8177 19.3087 16.4103 18.9014 15.9079 18.9014H12.2689C11.7665 18.9014 11.3591 19.3087 11.3591 19.8111V23.4501C11.3591 23.9526 11.7665 24.3599 12.2689 24.3599ZM13.1786 20.7209H14.9982V22.5404H13.1786V20.7209Z"
              fill="black"/>
        <path d="M21.3665 24.3599H25.0056C25.508 24.3599 25.9153 23.9526 25.9153 23.4501V19.8111C25.9153 19.3087 25.508 18.9014 25.0056 18.9014H21.3665C20.8641 18.9014 20.4568 19.3087 20.4568 19.8111V23.4501C20.4568 23.9526 20.8641 24.3599 21.3665 24.3599ZM22.2763 20.7209H24.0958V22.5404H22.2763V20.7209Z"
              fill="black"/>
        <path d="M12.2689 17.0816H15.9079C16.4103 17.0816 16.8177 16.6742 16.8177 16.1718V12.5328C16.8177 12.0304 16.4103 11.623 15.9079 11.623H12.2689C11.7665 11.623 11.3591 12.0304 11.3591 12.5328V16.1718C11.3591 16.6742 11.7665 17.0816 12.2689 17.0816ZM13.1786 13.4426H14.9982V15.2621H13.1786V13.4426Z"
              fill="black"/>
        <path d="M21.3665 17.0816H25.0056C25.508 17.0816 25.9153 16.6742 25.9153 16.1718V12.5328C25.9153 12.0304 25.508 11.623 25.0056 11.623H21.3665C20.8641 11.623 20.4568 12.0304 20.4568 12.5328V16.1718C20.4568 16.6742 20.8641 17.0816 21.3665 17.0816ZM22.2763 13.4426H24.0958V15.2621H22.2763V13.4426Z"
              fill="black"/>
    </g>
    <defs>
        <clipPath id="clip0">
            <rect width="54.5854" height="54.5854" fill="white" transform="translate(0.442139 0.706055)"/>
        </clipPath>
    </defs>
</svg>
