<svg width="55" height="56" viewBox="0 0 55 56" fill="none" xmlns="http://www.w3.org/2000/svg">
    <path d="M28.3449 10.5928L42.4327 16.7864L42.2595 34.9081L27.3727 28.4571L28.3449 10.5928Z" fill="#365193"/>
    <path d="M13.9744 34.6597L27.3726 28.2087L42.2595 34.9078L27.3726 42.3513L13.9744 34.6597Z" fill="#365193"/>
    <path d="M14.5791 46.7242H13.6085C14.2413 45.7563 14.5786 44.6251 14.5791 43.4687V41.3236C14.5795 40.852 14.5014 40.3836 14.348 39.9377L11.7099 32.2676C11.5969 31.8459 11.3781 31.46 11.0742 31.1466C10.7703 30.8331 10.3914 30.6025 9.97345 30.4765L11.5812 24.4695C11.7219 23.9604 11.6996 23.4199 11.5176 22.924C11.3356 22.4281 11.0029 22.0017 10.5662 21.7045C10.3342 21.5378 10.0742 21.4142 9.79861 21.3394C9.57686 21.2754 9.34708 21.2435 9.11629 21.2447C8.55907 21.2395 8.01572 21.4185 7.57063 21.7538C7.12554 22.089 6.80361 22.5619 6.65483 23.0989L2.10377 37.0864C1.87474 37.7977 1.83476 38.5564 1.98778 39.2878L3.30295 44.3983C3.42783 44.8831 3.49116 45.3817 3.49144 45.8824V46.7242H2.63854C2.41234 46.7242 2.1954 46.814 2.03545 46.974C1.8755 47.1339 1.78564 47.3509 1.78564 47.5771V52.6944C1.78564 52.9206 1.8755 53.1376 2.03545 53.2975C2.1954 53.4575 2.41234 53.5473 2.63854 53.5473H14.5791C14.8053 53.5473 15.0222 53.4575 15.1822 53.2975C15.3421 53.1376 15.432 52.9206 15.432 52.6944V47.5771C15.432 47.3509 15.3421 47.1339 15.1822 46.974C15.0222 46.814 14.8053 46.7242 14.5791 46.7242ZM4.95501 43.9693L3.65008 38.904C3.56392 38.4733 3.59006 38.0277 3.72598 37.6101L8.29154 23.5766C8.32054 23.469 8.37057 23.3683 8.43875 23.2802C8.50693 23.1921 8.5919 23.1184 8.68875 23.0633C8.78559 23.0083 8.89238 22.973 9.00295 22.9595C9.11353 22.946 9.22568 22.9545 9.33292 22.9846C9.42714 23.0089 9.51576 23.0512 9.59391 23.1092C9.74026 23.2073 9.85199 23.349 9.91323 23.5142C9.97447 23.6794 9.98211 23.8597 9.93507 24.0294L8.17384 30.6044C7.72761 30.8057 7.34921 31.1319 7.08434 31.5435C6.81948 31.9552 6.67948 32.4348 6.68127 32.9243C6.67795 33.1481 6.70667 33.3713 6.76656 33.587L8.3103 39.3543C8.36889 39.5728 8.51188 39.7591 8.70782 39.8722C8.90375 39.9853 9.13659 40.0159 9.3551 39.9573C9.57361 39.8987 9.7599 39.7557 9.87298 39.5598C9.98607 39.3638 10.0167 39.131 9.9581 38.9125L8.4118 33.1256C8.39401 33.06 8.38569 32.9922 8.38706 32.9243C8.38542 32.7493 8.43925 32.5783 8.54084 32.4358C8.64244 32.2933 8.78656 32.1866 8.95253 32.1311C8.97215 32.1243 9.05317 32.097 9.06597 32.0944C9.28934 32.0504 9.52108 32.0962 9.71082 32.2221C9.90056 32.3479 10.0329 32.5436 10.0792 32.7665L12.7343 40.4929C12.8265 40.7602 12.8735 41.0409 12.8733 41.3236V43.4687C12.874 44.3108 12.6246 45.1343 12.1569 45.8346L11.5641 46.7242H5.19723V45.8824C5.19694 45.237 5.11556 44.5943 4.95501 43.9693ZM13.7262 51.8415H3.49144V48.43H13.7262V51.8415Z"
          fill="black"/>
    <path d="M39.313 47.5775V52.6949C39.313 52.9211 39.4028 53.1381 39.5628 53.298C39.7227 53.4579 39.9397 53.5478 40.1659 53.5478H52.1064C52.3326 53.5478 52.5496 53.4579 52.7095 53.298C52.8695 53.1381 52.9593 52.9211 52.9593 52.6949V47.5775C52.9593 47.3513 52.8695 47.1344 52.7095 46.9744C52.5496 46.8145 52.3326 46.7246 52.1064 46.7246H51.2535V45.8828C51.2535 45.3808 51.3168 44.8807 51.442 44.3945L52.7572 39.284C52.9102 38.5526 52.8702 37.7939 52.6412 37.0826L48.0901 23.0994C47.9409 22.5637 47.6194 22.0921 47.1752 21.7576C46.731 21.423 46.189 21.2442 45.6329 21.2486C45.4022 21.2474 45.1724 21.2793 44.9506 21.3433C44.675 21.4181 44.415 21.5417 44.183 21.7083C43.7463 22.0056 43.4136 22.432 43.2316 22.9279C43.0496 23.4238 43.0274 23.9643 43.1681 24.4734L44.7715 30.4804C44.3535 30.6064 43.9746 30.837 43.6707 31.1505C43.3668 31.4639 43.148 31.8498 43.035 32.2715L40.397 39.9415C40.244 40.3864 40.1659 40.8536 40.1659 41.3241V43.4691C40.1664 44.6255 40.5037 45.7567 41.1365 46.7246H40.1659C39.9397 46.7246 39.7227 46.8145 39.5628 46.9744C39.4028 47.1344 39.313 47.3513 39.313 47.5775ZM49.5477 45.8828V46.7246H43.1809L42.5881 45.8351C42.1203 45.1347 41.871 44.3113 41.8717 43.4691V41.3241C41.8715 41.0414 41.9185 40.7606 42.0107 40.4934L44.6658 32.767C44.712 32.5441 44.8444 32.3484 45.0342 32.2225C45.2239 32.0967 45.4556 32.0508 45.679 32.0949C45.6918 32.0949 45.7728 32.1248 45.7924 32.1316C45.9584 32.1871 46.1025 32.2937 46.2041 32.4362C46.3057 32.5787 46.3596 32.7498 46.3579 32.9248C46.3593 32.9927 46.351 33.0605 46.3332 33.1261L44.7835 38.913C44.7249 39.1315 44.7555 39.3643 44.8686 39.5602C44.9817 39.7562 45.168 39.8992 45.3865 39.9578C45.605 40.0163 45.8378 39.9857 46.0337 39.8726C46.2297 39.7596 46.3727 39.5733 46.4313 39.3548L47.975 33.5875C48.0349 33.3718 48.0636 33.1486 48.0603 32.9248C48.0624 32.4356 47.9229 31.9563 47.6587 31.5447C47.3944 31.1331 47.0167 30.8067 46.5711 30.6049L44.8108 24.0291C44.7637 23.8593 44.7714 23.679 44.8326 23.5138C44.8938 23.3486 45.0056 23.2069 45.1519 23.1088C45.2301 23.0508 45.3187 23.0085 45.4129 22.9843C45.5201 22.9542 45.6323 22.9456 45.7429 22.9591C45.8534 22.9726 45.9602 23.0079 46.0571 23.063C46.1539 23.118 46.2389 23.1917 46.3071 23.2798C46.3753 23.3679 46.4253 23.4686 46.4543 23.5762L51.0198 37.6097C51.1558 38.0273 51.1819 38.4729 51.0957 38.9036L49.7908 43.9689C49.6299 44.5942 49.5482 45.2372 49.5477 45.8828ZM41.0188 48.4304H51.2535V51.842H41.0188V48.4304Z"
          fill="black"/>
    <path d="M41.36 8.4155L27.7137 2.44523C27.6061 2.39826 27.4899 2.37402 27.3725 2.37402C27.2551 2.37402 27.139 2.39826 27.0314 2.44523L13.385 8.4155C13.233 8.48185 13.1036 8.5911 13.0127 8.72986C12.9218 8.86862 12.8734 9.03087 12.8733 9.19675V26.2547C12.8733 26.412 12.9168 26.5662 12.999 26.7003C13.0812 26.8344 13.1988 26.9432 13.339 27.0146L26.9853 33.9572C27.1052 34.0183 27.2379 34.0501 27.3725 34.0501C27.5054 34.0499 27.6365 34.019 27.7555 33.9597L41.4018 27.1025C41.5431 27.0314 41.6619 26.9225 41.7449 26.7879C41.8279 26.6532 41.8718 26.4981 41.8718 26.34V9.19675C41.8717 9.03087 41.8232 8.86862 41.7323 8.72986C41.6414 8.5911 41.5121 8.48185 41.36 8.4155ZM27.3725 4.15699L38.8909 9.19675L27.3725 14.2365L24.3789 12.9265L28.9342 10.9333C29.086 10.8667 29.2152 10.7574 29.3059 10.6187C29.3966 10.4799 29.4449 10.3178 29.4449 10.152C29.4449 9.98623 29.3966 9.82406 29.3059 9.68531C29.2152 9.54656 29.086 9.43725 28.9342 9.37075L25.2744 7.77498C25.1668 7.72801 25.0507 7.70377 24.9332 7.70377C24.8158 7.70377 24.6997 7.72801 24.5921 7.77498L18.5954 10.3959L15.8584 9.19675L27.3725 4.15699ZM19.6965 12.7397L21.4023 13.486V17.1986L19.6965 16.3457V12.7397ZM20.7199 11.3273L24.9298 9.48759L26.4565 10.1537L22.2551 11.9951L20.7199 11.3273ZM14.5791 10.5008L17.9907 11.9934V16.8728C17.9906 17.0313 18.0347 17.1867 18.118 17.3215C18.2013 17.4564 18.3205 17.5653 18.4623 17.6362L21.8739 19.342C22.004 19.4069 22.1485 19.4376 22.2937 19.431C22.439 19.4245 22.5801 19.3809 22.7038 19.3044C22.8275 19.2279 22.9295 19.1211 23.0003 18.994C23.071 18.867 23.1081 18.724 23.108 18.5786V14.2288L26.5196 15.7214V31.8062L14.5791 25.7319V10.5008ZM28.2254 31.8139V15.7248L40.166 10.5008V25.8137L28.2254 31.8139Z"
          fill="black"/>
    <path d="M32.9659 25.6005L29.5483 27.3182C29.3462 27.42 29.1928 27.5979 29.1219 27.8128C29.0509 28.0277 29.0683 28.2619 29.17 28.4641C29.2718 28.6662 29.4498 28.8196 29.6646 28.8905C29.8795 28.9614 30.1138 28.9441 30.3159 28.8423L33.7335 27.1246C33.9356 27.0228 34.089 26.8449 34.1599 26.63C34.2309 26.4151 34.2135 26.1808 34.1117 25.9787C34.0099 25.7766 33.832 25.6232 33.6171 25.5523C33.4023 25.4813 33.168 25.4987 32.9659 25.6005Z"
          fill="black"/>
    <path d="M29.9311 25.5213C30.0638 25.5213 30.1946 25.4903 30.3132 25.4309L33.6821 23.7379C33.8842 23.6361 34.0376 23.4582 34.1086 23.2433C34.1795 23.0284 34.1622 22.7941 34.0604 22.592C33.9586 22.3899 33.7807 22.2365 33.5658 22.1656C33.3509 22.0946 33.1166 22.112 32.9145 22.2138L29.5464 23.9068C29.375 23.9931 29.2377 24.1349 29.1568 24.3089C29.0759 24.483 29.0561 24.6793 29.1006 24.8661C29.1451 25.0528 29.2513 25.2191 29.402 25.338C29.5527 25.4569 29.7391 25.5215 29.9311 25.5213Z"
          fill="black"/>
</svg>
